<svg width="30" height="30" viewBox="0 0 30 30" fill="none" xmlns="http://www.w3.org/2000/svg">
<g id="Vector">
<path d="M27.3546 30H18.7168C17.2586 30 16.0714 28.8129 16.0714 27.3546V16.5739C16.0714 15.1157 17.2586 13.9286 18.7168 13.9286H27.3546C28.8129 13.9286 30 15.1157 30 16.5739V27.3546C30 28.8129 28.8129 30 27.3546 30ZM18.7168 16.0714C18.4393 16.0714 18.2143 16.2964 18.2143 16.5739V27.3546C18.2143 27.6321 18.4393 27.8571 18.7168 27.8571H27.3546C27.6321 27.8571 27.8571 27.6321 27.8571 27.3546V16.5739C27.8571 16.2964 27.6321 16.0714 27.3546 16.0714H18.7168Z" fill="white"/>
<path d="M27.3546 11.7857H18.7168C17.2586 11.7857 16.0714 10.5986 16.0714 9.14036V2.64536C16.0714 1.18714 17.2586 0 18.7168 0H27.3546C28.8129 0 30 1.18714 30 2.64536V9.14036C30 10.5986 28.8129 11.7857 27.3546 11.7857ZM18.7168 2.14286C18.4393 2.14286 18.2143 2.36786 18.2143 2.64536V9.14036C18.2143 9.41786 18.4393 9.64286 18.7168 9.64286H27.3546C27.6321 9.64286 27.8571 9.41786 27.8571 9.14036V2.64536C27.8571 2.36786 27.6321 2.14286 27.3546 2.14286H18.7168Z" fill="white"/>
<path d="M11.2832 16.0714H2.64536C1.18714 16.0714 0 14.8843 0 13.4261V2.64536C0 1.18714 1.18714 0 2.64536 0H11.2832C12.7414 0 13.9286 1.18714 13.9286 2.64536V13.4261C13.9286 14.8843 12.7414 16.0714 11.2832 16.0714ZM2.64536 2.14286C2.36786 2.14286 2.14286 2.36786 2.14286 2.64536V13.4261C2.14286 13.7036 2.36786 13.9286 2.64536 13.9286H11.2832C11.5607 13.9286 11.7857 13.7036 11.7857 13.4261V2.64536C11.7857 2.36786 11.5607 2.14286 11.2832 2.14286H2.64536Z" fill="white"/>
<path d="M11.2832 30H2.64536C1.18714 30 0 28.8129 0 27.3546V20.8596C0 19.4014 1.18714 18.2143 2.64536 18.2143H11.2832C12.7414 18.2143 13.9286 19.4014 13.9286 20.8596V27.3546C13.9286 28.8129 12.7414 30 11.2832 30ZM2.64536 20.3571C2.36786 20.3571 2.14286 20.5821 2.14286 20.8596V27.3546C2.14286 27.6321 2.36786 27.8571 2.64536 27.8571H11.2832C11.5607 27.8571 11.7857 27.6321 11.7857 27.3546V20.8596C11.7857 20.5821 11.5607 20.3571 11.2832 20.3571H2.64536Z" fill="white"/>
</g>
</svg>
