<svg width="18" height="30" viewBox="0 0 18 30" fill="none" xmlns="http://www.w3.org/2000/svg">
<path id="Vector" d="M0.488726 13.8294L14.1234 0.479264C14.4387 0.170243 14.8597 0 15.3085 0C15.7574 0 16.1784 0.170243 16.4937 0.479264L17.4978 1.46218C18.1512 2.10267 18.1512 3.14363 17.4978 3.78314L6.04849 14.9938L17.5105 26.2169C17.8259 26.5259 18 26.9378 18 27.3771C18 27.8168 17.8259 28.2288 17.5105 28.5381L16.5064 29.5207C16.1908 29.8298 15.7701 30 15.3212 30C14.8724 30 14.4514 29.8298 14.1361 29.5207L0.488726 16.1584C0.172625 15.8484 -0.000991821 15.4345 3.8147e-06 14.9945C-0.000991821 14.5528 0.172625 14.1392 0.488726 13.8294Z" fill="white"/>
</svg>
