<svg width="30" height="30" viewBox="0 0 30 30" fill="none" xmlns="http://www.w3.org/2000/svg">
<g id="Vector">
<path d="M10.6813 12.4284C10.3846 12.3295 10.0549 12.4943 9.95604 12.791L9.1978 15.0987L8.43956 12.791C8.34066 12.4943 8.01099 12.3295 7.71429 12.4284C7.54945 12.4943 7.38462 12.6262 7.35165 12.791L6.59341 15.0987L5.83517 12.791C5.73626 12.4943 5.40659 12.3295 5.10989 12.4284C4.81319 12.5273 4.64835 12.8569 4.74725 13.1536L6.03297 17.1755C6.13187 17.4722 6.46154 17.6371 6.75824 17.5382C6.92308 17.4722 7.08791 17.3404 7.12088 17.1755L7.87912 14.8679L8.63736 17.1755C8.73626 17.4722 9.06594 17.6371 9.36264 17.5382C9.52747 17.4722 9.69231 17.3404 9.72528 17.1755L11.044 13.1536C11.1429 12.8569 10.978 12.5273 10.6813 12.4284Z" fill="white"/>
<path d="M17.7692 12.4284C17.4725 12.3295 17.1429 12.4943 17.044 12.791L16.2857 15.0987L15.5275 12.791C15.4286 12.4943 15.0989 12.3295 14.8022 12.4284C14.6374 12.4943 14.4725 12.6262 14.4396 12.791L13.6813 15.0987L12.9231 12.791C12.8242 12.4943 12.4945 12.3295 12.1978 12.4284C11.9011 12.5273 11.7363 12.8569 11.8352 13.1536L13.1209 17.1755C13.2198 17.4722 13.5495 17.6371 13.8462 17.5382C14.011 17.4722 14.1758 17.3404 14.2088 17.1755L14.967 14.8679L15.7253 17.1755C15.8242 17.4722 16.1538 17.6371 16.4506 17.5382C16.6154 17.4722 16.7802 17.3404 16.8132 17.1755L18.0989 13.1536C18.2308 12.8569 18.0659 12.5273 17.7692 12.4284Z" fill="white"/>
<path d="M24.8571 12.4284C24.5604 12.3295 24.2308 12.4943 24.1319 12.791L23.3736 15.0987L22.6154 12.791C22.5165 12.4943 22.1868 12.3295 21.8901 12.4284C21.7253 12.4943 21.5604 12.6262 21.5275 12.791L20.7692 15.0987L20.011 12.791C19.9121 12.4943 19.5824 12.3295 19.2857 12.4284C18.989 12.5273 18.8242 12.8569 18.9231 13.1536L20.2747 17.2085C20.3736 17.5052 20.7033 17.67 21 17.5711C21.1648 17.5052 21.3297 17.3733 21.3626 17.2085L22.1209 14.9009L22.8791 17.2085C22.978 17.5052 23.3077 17.67 23.6044 17.5711C23.7692 17.5052 23.9341 17.3733 23.967 17.2085L25.2527 13.1866C25.3516 12.8569 25.1868 12.5273 24.8571 12.4284C24.8901 12.4284 24.8901 12.4284 24.8571 12.4284Z" fill="white"/>
<path d="M30 14.9998C30 6.7911 23.3407 0 15 0C6.72528 0 0 6.72517 0 14.9998C0 23.1755 6.59341 29.9336 14.8681 29.9995C23.1758 30.0655 30 23.3073 30 14.9998ZM1.18681 15.5932H2.6044V18.0327C2.6044 19.0217 3.3956 19.7799 4.38462 19.7799H6.72528C6.82418 20.2414 6.92308 20.703 7.02198 21.1315H2.6044C1.74725 19.4173 1.25275 17.5052 1.18681 15.5932ZM2.6044 8.86799H6.98901C6.89011 9.29656 6.75824 9.75809 6.69231 10.2196H4.35165C3.36264 10.2196 2.6044 11.0108 2.57143 11.9668V14.4064H1.15385C1.25275 12.4943 1.74725 10.5822 2.6044 8.86799ZM28.8132 14.4393H27.3956V11.9998C27.3956 11.0108 26.6044 10.2526 25.6484 10.2526H23.3077C23.2088 9.79105 23.1099 9.32952 23.011 8.90096H27.3956C28.2527 10.5822 28.7473 12.4943 28.8132 14.4393ZM4.35165 18.6261C4.02198 18.6261 3.75824 18.3623 3.72527 18.0327V11.9668C3.72527 11.6372 3.98901 11.3734 4.35165 11.3734H25.6484C25.978 11.3734 26.2418 11.6372 26.2418 11.9668V17.9997C26.2418 18.3294 25.978 18.5931 25.6484 18.5931L4.35165 18.6261ZM22.1209 10.2196H15.5934V8.86799H21.8242C21.9231 9.29656 22.0549 9.75809 22.1209 10.2196ZM15.5934 7.71416V1.21976C18 1.54943 20.2088 4.05488 21.4615 7.71416H15.5934ZM14.4396 1.21976V7.71416H8.53846C9.82418 4.02191 12 1.54943 14.4396 1.21976ZM14.4396 8.86799V10.2196H7.87912C7.97802 9.75809 8.07692 9.29656 8.20879 8.86799H14.4396ZM7.87912 19.7799H14.4396V21.1315H8.17582C8.07692 20.703 7.94506 20.2414 7.87912 19.7799ZM14.4396 22.2854V28.7798C12.033 28.4501 9.82418 25.9446 8.57143 22.2854H14.4396ZM15.5934 28.7798V22.2854H21.4615C20.1758 25.9776 18 28.4501 15.5934 28.7798ZM15.5934 21.1315V19.7799H22.1538C22.0549 20.2414 21.956 20.703 21.8242 21.1315H15.5934ZM23.3077 19.7799H25.6484C26.6374 19.7799 27.3956 18.9887 27.3956 18.0327V15.5932H28.8132C28.7473 17.5382 28.2527 19.4173 27.3956 21.1645H23.011C23.1099 20.703 23.2088 20.2414 23.3077 19.7799ZM26.7363 7.71416H22.6813C21.8571 5.20871 20.6703 3.16478 19.2198 1.81316C22.3517 2.83512 25.022 4.91201 26.7363 7.71416ZM10.7802 1.81316C9.32967 3.16478 8.14286 5.17574 7.31868 7.71416H3.26374C4.97802 4.91201 7.64835 2.83512 10.7802 1.81316ZM3.26374 22.2854H7.35165C8.17582 24.7908 9.36264 26.8347 10.8132 28.1534C7.64835 27.1644 4.97802 25.0875 3.26374 22.2854ZM19.2198 28.1864C20.6703 26.8347 21.8571 24.8238 22.6813 22.3183H26.7692C25.022 25.0875 22.3517 27.1644 19.2198 28.1864Z" fill="white"/>
</g>
</svg>
