<svg width="30" height="23" viewBox="0 0 30 23" fill="none" xmlns="http://www.w3.org/2000/svg">
<g id="Vector">
<path d="M29.5312 23H25.9297C25.6699 23 25.4609 22.7956 25.4609 22.5415V6.89484C25.4609 6.64075 25.6699 6.43633 25.9297 6.43633H29.5312C29.791 6.43633 30 6.64075 30 6.89484V22.5415C30 22.7956 29.791 23 29.5312 23ZM26.3984 22.083H29.0625V7.35335H26.3984V22.083Z" fill="white"/>
<path d="M23.166 23H19.5645C19.3047 23 19.0957 22.7956 19.0957 22.5415V11.7913C19.0957 11.5373 19.3047 11.3328 19.5645 11.3328H23.166C23.4258 11.3328 23.6348 11.5373 23.6348 11.7913V22.5415C23.6348 22.7956 23.4258 23 23.166 23ZM20.0332 22.083H22.6973V12.2499H20.0332V22.083Z" fill="white"/>
<path d="M16.8008 23H13.1992C12.9395 23 12.7305 22.7956 12.7305 22.5415V14.8901C12.7305 14.636 12.9395 14.4316 13.1992 14.4316H16.8008C17.0605 14.4316 17.2695 14.636 17.2695 14.8901V22.5415C17.2695 22.7956 17.0605 23 16.8008 23ZM13.668 22.083H16.332V15.3486H13.668V22.083Z" fill="white"/>
<path d="M10.4355 23H6.83398C6.57422 23 6.36523 22.7956 6.36523 22.5415V11.6767C6.36523 11.4226 6.57422 11.2182 6.83398 11.2182H10.4355C10.6953 11.2182 10.9043 11.4226 10.9043 11.6767V22.5415C10.9043 22.7956 10.6934 23 10.4355 23ZM7.30273 22.083H9.9668V12.1352H7.30273V22.083Z" fill="white"/>
<path d="M4.07031 23H0.46875C0.208984 23 0 22.7956 0 22.5415V14.9207C0 14.6666 0.208984 14.4622 0.46875 14.4622H4.07031C4.33008 14.4622 4.53906 14.6666 4.53906 14.9207V22.5415C4.53906 22.7956 4.32812 23 4.07031 23ZM0.9375 22.083H3.60156V15.3792H0.9375V22.083Z" fill="white"/>
<path d="M14.0664 9.51599C13.9902 9.51599 13.9121 9.49689 13.8398 9.45868L9.33984 7.01711C9.11328 6.89484 9.03125 6.61591 9.15625 6.3943C9.28125 6.17269 9.56641 6.09245 9.79297 6.21472L14.293 8.65437C14.5195 8.77664 14.6016 9.05557 14.4766 9.27718C14.3926 9.43002 14.2324 9.51599 14.0664 9.51599Z" fill="white"/>
<path d="M22.1621 6.18988C22.0234 6.18988 21.8867 6.13066 21.793 6.01412C21.6328 5.81543 21.668 5.52695 21.8711 5.3703L26.6445 1.6984C26.8477 1.54174 27.1426 1.57613 27.3027 1.77482C27.4629 1.9735 27.4277 2.26198 27.2246 2.41864L22.4512 6.09245C22.3652 6.15741 22.2637 6.18988 22.1621 6.18988Z" fill="white"/>
<path d="M15.9668 9.60578C15.8047 9.60578 15.6465 9.52363 15.5605 9.37653C15.4316 9.15682 15.5078 8.87599 15.7324 8.7499L20.1641 6.24338C20.3887 6.11729 20.6758 6.19179 20.8047 6.4115C20.9336 6.6312 20.8574 6.91204 20.6328 7.03813L16.2012 9.54465C16.127 9.58477 16.0469 9.60578 15.9668 9.60578Z" fill="white"/>
<path d="M3.17969 9.49689C3.01172 9.49689 2.84961 9.409 2.76563 9.25426C2.64453 9.03073 2.73047 8.75372 2.95898 8.63336L7.50586 6.26057C7.73438 6.14212 8.01758 6.22618 8.14062 6.44971C8.26367 6.67323 8.17578 6.95025 7.94727 7.0706L3.39844 9.44148C3.32812 9.47969 3.25391 9.49689 3.17969 9.49689Z" fill="white"/>
<path d="M27.7305 2.89625C26.9141 2.89625 26.25 2.2467 26.25 1.44813C26.25 0.649555 26.9141 0 27.7305 0C28.5469 0 29.2109 0.649555 29.2109 1.44813C29.2109 2.2467 28.5469 2.89625 27.7305 2.89625ZM27.7305 0.915109C27.4297 0.915109 27.1875 1.15392 27.1875 1.44622C27.1875 1.74043 27.4316 1.97732 27.7305 1.97732C28.0293 1.97732 28.2734 1.73852 28.2734 1.44622C28.2734 1.15392 28.0313 0.915109 27.7305 0.915109Z" fill="white"/>
<path d="M21.3652 7.79276C20.5488 7.79276 19.8848 7.1432 19.8848 6.34463C19.8848 5.54606 20.5488 4.8965 21.3652 4.8965C22.1816 4.8965 22.8457 5.54606 22.8457 6.34463C22.8457 7.1432 22.1816 7.79276 21.3652 7.79276ZM21.3652 5.81161C21.0645 5.81161 20.8223 6.05042 20.8223 6.34272C20.8223 6.63502 21.0664 6.87383 21.3652 6.87383C21.6641 6.87383 21.9082 6.63502 21.9082 6.34272C21.9082 6.05042 21.666 5.81161 21.3652 5.81161Z" fill="white"/>
<path d="M15 10.8915C14.1836 10.8915 13.5195 10.242 13.5195 9.44339C13.5195 8.64482 14.1836 7.99527 15 7.99527C15.8164 7.99527 16.4805 8.64482 16.4805 9.44339C16.4805 10.242 15.8164 10.8915 15 10.8915ZM15 8.91228C14.6992 8.91228 14.457 9.15109 14.457 9.44339C14.457 9.73569 14.7012 9.9745 15 9.9745C15.3008 9.9745 15.543 9.73569 15.543 9.44339C15.543 9.15109 15.3008 8.91228 15 8.91228Z" fill="white"/>
<path d="M2.26953 10.9221C1.45313 10.9221 0.789063 10.2725 0.789063 9.47396C0.789063 8.67539 1.45313 8.02583 2.26953 8.02583C3.08594 8.02583 3.75 8.67539 3.75 9.47396C3.75 10.2725 3.08594 10.9221 2.26953 10.9221ZM2.26953 8.94285C1.96875 8.94285 1.72656 9.18166 1.72656 9.47396C1.72656 9.76626 1.9707 10.0051 2.26953 10.0051C2.56836 10.0051 2.8125 9.76626 2.8125 9.47396C2.8125 9.18166 2.56836 8.94285 2.26953 8.94285Z" fill="white"/>
<path d="M8.63477 7.67813C7.81836 7.67813 7.1543 7.02857 7.1543 6.23C7.1543 5.43143 7.81836 4.78188 8.63477 4.78188C9.45117 4.78188 10.1152 5.43143 10.1152 6.23C10.1152 7.02857 9.45117 7.67813 8.63477 7.67813ZM8.63477 5.69698C8.33398 5.69698 8.0918 5.93579 8.0918 6.22809C8.0918 6.52039 8.33594 6.7592 8.63477 6.7592C8.93359 6.7592 9.17774 6.52039 9.17774 6.22809C9.17774 5.93579 8.93555 5.69698 8.63477 5.69698Z" fill="white"/>
</g>
</svg>
