<svg width="30" height="28" viewBox="0 0 30 28" fill="none" xmlns="http://www.w3.org/2000/svg">
<path id="Vector" d="M29.8269 5.34038C29.6552 5.0963 29.3788 4.94544 29.0787 4.93272L10.4694 4.13724C9.93544 4.11407 9.48925 4.52286 9.46642 5.0499C9.44373 5.57673 9.85528 6.02188 10.3867 6.04451L27.7361 6.7862L24.3248 17.3411H9.1443L6.40172 2.53204C6.34143 2.20747 6.11673 1.93669 5.80683 1.81612L1.31494 0.0661058C0.81988 -0.126106 0.261239 0.115041 0.0668123 0.605391C-0.127279 1.09601 0.115822 1.65034 0.610616 1.84315L4.60462 3.39915L7.39561 18.4682C7.47973 18.9212 7.87785 19.2502 8.3425 19.2502H8.80547L7.74827 22.1623C7.65979 22.4063 7.69624 22.6772 7.84683 22.8891C7.99721 23.1011 8.24179 23.2272 8.50288 23.2272H9.2444C8.78492 23.7343 8.50288 24.402 8.50288 25.1363C8.50288 26.7154 9.79855 28 11.3905 28C12.9826 28 14.2782 26.7154 14.2782 25.1363C14.2782 24.4021 13.9962 23.7343 13.5368 23.2272H19.8326C19.3729 23.7343 19.0909 24.402 19.0909 25.1363C19.0909 26.7154 20.3863 28 21.9786 28C23.571 28 24.8663 26.7154 24.8663 25.1363C24.8663 24.4021 24.5843 23.7343 24.125 23.2272H25.0267C25.4698 23.2272 25.8289 22.8711 25.8289 22.4318C25.8289 21.9924 25.4698 21.6363 25.0267 21.6363H9.6442L10.5104 19.2499H25.0267C25.4453 19.2499 25.8156 18.9818 25.9431 18.5868L29.9538 6.17747C30.0459 5.89425 29.9986 5.58459 29.8269 5.34038ZM11.3906 26.4094C10.6828 26.4094 10.1072 25.8386 10.1072 25.1367C10.1072 24.4347 10.6828 23.8639 11.3906 23.8639C12.0984 23.8639 12.674 24.4347 12.674 25.1367C12.674 25.8386 12.0984 26.4094 11.3906 26.4094ZM21.9786 26.4094C21.2708 26.4094 20.6952 25.8386 20.6952 25.1367C20.6952 24.4347 21.2708 23.8639 21.9786 23.8639C22.6864 23.8639 23.262 24.4347 23.262 25.1367C23.262 25.8386 22.6864 26.4094 21.9786 26.4094Z" fill="white"/>
</svg>
