<svg width="21" height="30" viewBox="0 0 21 30" fill="none" xmlns="http://www.w3.org/2000/svg">
<g id="Vector">
<path d="M19.1201 30C20.1569 30 21 29.1591 21 28.125V6.23468C21 6.14261 20.9509 5.99139 20.8623 5.90327L15.0758 0.137306C14.9906 0.0523744 14.8421 0 14.7435 0H1.87987C0.843073 0 0 0.84094 0 1.87498V28.125C0 29.1591 0.843132 30 1.87987 30H19.1201ZM19.3946 5.76597H16.1534C15.6353 5.76597 15.2135 5.34526 15.2135 4.82848V1.59966C15.2654 1.65133 19.2972 5.66894 19.3946 5.76597ZM0.939934 28.125V1.87498C0.939934 1.35814 1.36174 0.937491 1.87987 0.937491H14.2736V4.82848C14.2736 5.86258 15.1167 6.70346 16.1534 6.70346H20.0601V28.125C20.0601 28.6419 19.6383 29.0625 19.1201 29.0625H1.87987C1.36168 29.0625 0.939934 28.6418 0.939934 28.125Z" fill="white"/>
<path d="M4.18337 25.3148H16.8166C17.0764 25.3148 17.2866 25.1051 17.2866 24.846C17.2866 24.5869 17.0764 24.3772 16.8166 24.3772H4.18337C3.9236 24.3772 3.71338 24.5869 3.71338 24.846C3.71338 25.1051 3.9236 25.3148 4.18337 25.3148Z" fill="white"/>
<path d="M4.18337 21.3761H16.8166C17.0764 21.3761 17.2866 21.1665 17.2866 20.9074C17.2866 20.6483 17.0764 20.4386 16.8166 20.4386H4.18337C3.9236 20.4386 3.71338 20.6483 3.71338 20.9074C3.71338 21.1665 3.9236 21.3761 4.18337 21.3761Z" fill="white"/>
<path d="M4.18337 17.438H16.8166C17.0764 17.438 17.2866 17.2284 17.2866 16.9693C17.2866 16.7102 17.0764 16.5005 16.8166 16.5005H4.18337C3.9236 16.5005 3.71338 16.7102 3.71338 16.9693C3.71338 17.2284 3.9236 17.438 4.18337 17.438Z" fill="white"/>
<path d="M4.18337 13.4994H16.8166C17.0764 13.4994 17.2866 13.2897 17.2866 13.0306C17.2866 12.7715 17.0764 12.5618 16.8166 12.5618H4.18337C3.9236 12.5618 3.71338 12.7715 3.71338 13.0306C3.71338 13.2898 3.9236 13.4994 4.18337 13.4994Z" fill="white"/>
<path d="M4.18337 9.56081H16.8166C17.0764 9.56081 17.2866 9.35114 17.2866 9.09204C17.2866 8.83294 17.0764 8.62326 16.8166 8.62326H4.18337C3.9236 8.62326 3.71338 8.83294 3.71338 9.09204C3.71338 9.35114 3.9236 9.56081 4.18337 9.56081Z" fill="white"/>
<path d="M4.18337 5.62264H10.5C10.7598 5.62264 10.97 5.41297 10.97 5.15387C10.97 4.89477 10.7598 4.68509 10.5 4.68509H4.18337C3.9236 4.68509 3.71338 4.89477 3.71338 5.15387C3.71338 5.41303 3.9236 5.62264 4.18337 5.62264Z" fill="white"/>
</g>
</svg>
