<svg width="30" height="30" viewBox="0 0 30 30" fill="none" xmlns="http://www.w3.org/2000/svg">
<g id="Vector">
<path d="M14.6645 28.2041L14.2313 28.4208L1.49998 22.7625V7.904L13.9453 13.4353C14.0412 13.4779 14.145 13.4999 14.25 13.4999C14.355 13.4999 14.4588 13.4779 14.5547 13.4353L27 7.904V14.2499C27.002 14.4476 27.0818 14.6365 27.2223 14.7756C27.3627 14.9147 27.5524 14.9927 27.75 14.9927C27.9477 14.9927 28.1374 14.9147 28.2778 14.7756C28.4182 14.6365 28.4981 14.4476 28.5 14.2499V6.74989C28.5 6.60483 28.4579 6.46289 28.3789 6.34125C28.2999 6.21961 28.1873 6.1235 28.0547 6.06455L14.5547 0.0645492C14.4588 0.0219886 14.355 0 14.25 0C14.1451 0 14.0413 0.0219886 13.9453 0.0645492L0.44529 6.06455C0.312753 6.1235 0.200151 6.21961 0.121119 6.34125C0.042087 6.46289 1.58009e-05 6.60483 0 6.74989V23.25C2.12572e-05 23.395 0.0420973 23.5369 0.121131 23.6585C0.200164 23.7801 0.312764 23.8762 0.44529 23.9351L13.9453 29.9351C14.0464 29.9801 14.1562 30.0022 14.2668 29.9998C14.3774 29.9973 14.4861 29.9705 14.5852 29.921L15.3352 29.5461C15.4238 29.5023 15.503 29.4415 15.5681 29.3671C15.6332 29.2927 15.6829 29.2062 15.7144 29.1125C15.7459 29.0188 15.7586 28.9198 15.7518 28.8211C15.7449 28.7225 15.7186 28.6262 15.6744 28.5378C15.6302 28.4494 15.5689 28.3706 15.4941 28.3059C15.4194 28.2413 15.3325 28.192 15.2387 28.161C15.1448 28.13 15.0457 28.1179 14.9471 28.1253C14.8486 28.1327 14.7524 28.1596 14.6643 28.2043L14.6645 28.2041ZM14.2497 11.9292L8.94376 9.57083L20.5547 4.41051C20.5681 4.40453 20.5792 4.39582 20.592 4.38942L25.9033 6.74989L14.2497 11.9292ZM14.2497 1.57051L18.7505 3.57077L7.1953 8.70641C7.16554 8.72087 7.13679 8.73732 7.10924 8.75563L2.59686 6.74989L14.2497 1.57051Z" fill="white"/>
<path d="M22.5 14.9999C21.0167 14.9999 19.5666 15.4397 18.3332 16.2638C17.0998 17.088 16.1385 18.2593 15.5709 19.6298C15.0032 21.0002 14.8546 22.5082 15.144 23.9631C15.4334 25.418 16.1477 26.7543 17.1966 27.8033C18.2455 28.8522 19.5819 29.5665 21.0368 29.8559C22.4916 30.1453 23.9996 29.9968 25.3701 29.4291C26.7405 28.8614 27.9119 27.9001 28.736 26.6668C29.5601 25.4334 30 23.9833 30 22.4999C29.9978 20.5115 29.2069 18.6051 27.8009 17.1991C26.3948 15.793 24.4885 15.0021 22.5 14.9999ZM22.5 28.4999C21.3133 28.4999 20.1533 28.1481 19.1666 27.4888C18.1799 26.8295 17.4109 25.8924 16.9568 24.796C16.5026 23.6997 16.3838 22.4933 16.6153 21.3294C16.8468 20.1655 17.4183 19.0964 18.2574 18.2573C19.0965 17.4182 20.1656 16.8467 21.3295 16.6152C22.4934 16.3837 23.6998 16.5025 24.7961 16.9567C25.8925 17.4108 26.8296 18.1798 27.4888 19.1665C28.1481 20.1532 28.5 21.3133 28.5 22.4999C28.4982 24.0907 27.8655 25.6157 26.7407 26.7406C25.6158 27.8654 24.0908 28.4981 22.5 28.4999Z" fill="white"/>
<path d="M24.9698 20.4697L21.75 23.6894L20.4053 22.3447C20.3359 22.2737 20.2532 22.2172 20.1619 22.1785C20.0706 22.1397 19.9724 22.1195 19.8732 22.1189C19.774 22.1183 19.6757 22.1374 19.5839 22.1752C19.4921 22.2129 19.4088 22.2684 19.3386 22.3385C19.2685 22.4087 19.2129 22.4921 19.1752 22.5838C19.1375 22.6756 19.1184 22.774 19.119 22.8732C19.1195 22.9724 19.1398 23.0705 19.1785 23.1618C19.2173 23.2531 19.2738 23.3359 19.3448 23.4052L21.2198 25.2803C21.2894 25.3499 21.3721 25.4052 21.4631 25.4429C21.554 25.4806 21.6516 25.5 21.75 25.5C21.8485 25.5 21.946 25.4806 22.037 25.4429C22.128 25.4052 22.2107 25.3499 22.2803 25.2803L26.0303 21.5303C26.1683 21.3891 26.245 21.1992 26.2439 21.0018C26.2427 20.8044 26.1638 20.6154 26.0242 20.4758C25.8846 20.3362 25.6956 20.2573 25.4982 20.2562C25.3008 20.255 25.1109 20.3318 24.9698 20.4697V20.4697Z" fill="white"/>
</g>
</svg>
