<svg width="30" height="23" viewBox="0 0 30 23" fill="none" xmlns="http://www.w3.org/2000/svg">
<g id="Vector">
<path fill-rule="evenodd" clip-rule="evenodd" d="M15 0C12.4967 0 10.4651 2.04195 10.4651 4.55793C10.4651 7.0739 12.4967 9.11585 15 9.11585C17.5033 9.11585 19.5349 7.0739 19.5349 4.55793C19.5349 2.04195 17.5033 0 15 0ZM15 2.10366C16.3479 2.10366 17.4419 3.20317 17.4419 4.55793C17.4419 5.91268 16.3479 7.0122 15 7.0122C13.6521 7.0122 12.5581 5.91268 12.5581 4.55793C12.5581 3.20317 13.6521 2.10366 15 2.10366Z" fill="white"/>
<path fill-rule="evenodd" clip-rule="evenodd" d="M24.7674 4.06707C22.6493 4.06707 20.9302 5.79488 20.9302 7.92378C20.9302 10.0527 22.6493 11.7805 24.7674 11.7805C26.8856 11.7805 28.6046 10.0527 28.6046 7.92378C28.6046 5.79488 26.8856 4.06707 24.7674 4.06707ZM24.7674 6.17073C25.7302 6.17073 26.5116 6.9561 26.5116 7.92378C26.5116 8.89146 25.7302 9.67683 24.7674 9.67683C23.8046 9.67683 23.0233 8.89146 23.0233 7.92378C23.0233 6.9561 23.8046 6.17073 24.7674 6.17073Z" fill="white"/>
<path fill-rule="evenodd" clip-rule="evenodd" d="M5.23256 4.06707C3.11442 4.06707 1.39535 5.79488 1.39535 7.92378C1.39535 10.0527 3.11442 11.7805 5.23256 11.7805C7.3507 11.7805 9.06977 10.0527 9.06977 7.92378C9.06977 5.79488 7.3507 4.06707 5.23256 4.06707ZM5.23256 6.17073C6.19535 6.17073 6.97674 6.9561 6.97674 7.92378C6.97674 8.89146 6.19535 9.67683 5.23256 9.67683C4.26977 9.67683 3.48837 8.89146 3.48837 7.92378C3.48837 6.9561 4.26977 6.17073 5.23256 6.17073Z" fill="white"/>
<path fill-rule="evenodd" clip-rule="evenodd" d="M21.6279 14.936C21.6279 12.0315 19.2851 9.67683 16.3953 9.67683H13.6046C10.7149 9.67683 8.37209 12.0315 8.37209 14.936V21.9482C8.37209 22.5288 8.84093 23 9.4186 23H20.5814C21.1591 23 21.6279 22.5288 21.6279 21.9482V14.936ZM19.5349 14.936V20.8963H10.4651V14.936C10.4651 13.1927 11.8702 11.7805 13.6046 11.7805H16.3953C18.1298 11.7805 19.5349 13.1927 19.5349 14.936Z" fill="white"/>
<path fill-rule="evenodd" clip-rule="evenodd" d="M30 21.9482V16.3384C30 14.2081 28.2823 12.4817 26.1628 12.4817H23.3721C21.2526 12.4817 19.5349 14.2081 19.5349 16.3384V21.9482C19.5349 22.5288 20.0037 23 20.5814 23L28.9535 23C29.5312 23 30 22.5288 30 21.9482ZM27.907 16.3384V20.8963H21.6279V16.3384C21.6279 15.3707 22.4093 14.5854 23.3721 14.5854H26.1628C27.1256 14.5854 27.907 15.3707 27.907 16.3384Z" fill="white"/>
<path fill-rule="evenodd" clip-rule="evenodd" d="M10.4651 21.9482V16.3384C10.4651 14.2081 8.74744 12.4817 6.62791 12.4817H3.83721C1.71767 12.4817 0 14.2081 0 16.3384V21.9482C0 22.5288 0.468837 23 1.04651 23L9.4186 23C9.99628 23 10.4651 22.5288 10.4651 21.9482ZM8.37209 16.3384V20.8963H2.09302V16.3384C2.09302 15.3707 2.87442 14.5854 3.83721 14.5854H6.62791C7.5907 14.5854 8.37209 15.3707 8.37209 16.3384Z" fill="white"/>
</g>
</svg>
