<svg width="30" height="30" viewBox="0 0 30 30" fill="none" xmlns="http://www.w3.org/2000/svg">
<g id="Frame 9">
<rect width="30" height="30" rx="15" fill="url(#paint0_radial_5_39)"/>
<path id="Vector" d="M17.9958 18H20.4982V23H17.3702V19.875H15.2782C14.8272 20.8975 13.6973 21.75 12.3654 21.75V23H9.23744V15.1681L8.85707 15.5256L8 14.615L9.72165 12.9975L9.72415 13C10.0807 12.605 10.58 12.375 11.1142 12.375H12.991V12.6875C12.991 13.5487 12.2897 14.25 11.427 14.25H10.4886V15.5H11.427C12.9791 15.5 14.2422 14.2381 14.2422 12.6875V12.375H15.3258L15.7343 14.4381C15.5766 14.7687 15.4934 15.1312 15.4934 15.5C15.4934 16.8787 16.6158 18 17.9958 18ZM21.4291 9.25C21.6274 8.88063 21.7494 8.4575 21.7494 8H20.4982C20.4982 8.68938 20.0272 9.25 19.4478 9.25H18.42C17.8407 9.25 17.3696 8.68938 17.3696 8H16.1184C16.1184 8.4575 16.2404 8.88063 16.4387 9.25H14.8672C14.8672 10.1481 15.5003 10.9419 16.3442 11.125L17.0568 14.6812C16.8647 14.9012 16.744 15.185 16.744 15.5C16.744 16.1906 17.3039 16.75 17.9952 16.75H19.872C20.5633 16.75 21.1232 16.1906 21.1232 15.5C21.1232 15.185 21.0025 14.9006 20.8104 14.6812L21.523 11.125C22.3669 10.9419 23 10.1481 23 9.25H21.4285H21.4291Z" fill="white"/>
</g>
<defs>
<radialGradient id="paint0_radial_5_39" cx="0" cy="0" r="1" gradientUnits="userSpaceOnUse" gradientTransform="translate(15) rotate(90) scale(30 15)">
<stop stop-color="#B9D5FF"/>
<stop offset="1" stop-color="#024AB4"/>
</radialGradient>
</defs>
</svg>
