<svg width="13" height="13" viewBox="0 0 13 13" fill="none" xmlns="http://www.w3.org/2000/svg">
<g id="Vector">
<path d="M6.50229 3.16186C4.659 3.16186 3.16671 4.65575 3.16671 6.49739C3.16671 8.34065 4.66062 9.83291 6.50229 9.83291C8.34558 9.83291 9.83788 8.33902 9.83788 6.49739C9.83788 4.65413 8.34396 3.16186 6.50229 3.16186ZM6.50229 8.66239C5.30575 8.66239 4.33725 7.69337 4.33725 6.49739C4.33725 5.30141 5.30629 4.33238 6.50229 4.33238C7.69829 4.33238 8.66733 5.30141 8.66733 6.49739C8.66787 7.69337 7.69883 8.66239 6.50229 8.66239Z" fill="#01204E"/>
<path d="M9.18029 0.0408337C7.98429 -0.014957 5.02192 -0.0122487 3.82483 0.0408337C2.77292 0.0901245 1.84504 0.344162 1.097 1.09219C-0.153169 2.34233 0.0066231 4.02689 0.0066231 6.49739C0.0066231 9.02584 -0.13421 10.6714 1.097 11.9026C2.35204 13.1571 4.061 12.9929 6.50229 12.9929C9.00696 12.9929 9.87146 12.9946 10.7571 12.6517C11.9612 12.1842 12.8701 11.108 12.959 9.1748C13.0153 7.97828 13.012 5.0165 12.959 3.81943C12.8517 1.53743 11.627 0.153498 9.18029 0.0408337ZM11.0734 11.0755C10.2539 11.895 9.11692 11.8219 6.48658 11.8219C3.77825 11.8219 2.69221 11.862 1.89975 11.0673C0.98704 10.159 1.15225 8.70031 1.15225 6.48872C1.15225 3.49606 0.845123 1.34081 3.84867 1.18698C4.53875 1.16261 4.74187 1.15448 6.479 1.15448L6.50337 1.17073C9.38992 1.17073 11.6546 0.868486 11.7906 3.87143C11.8215 4.55663 11.8285 4.76246 11.8285 6.49685C11.828 9.17372 11.8789 10.2662 11.0734 11.0755Z" fill="#01204E"/>
<path d="M9.97004 3.80968C10.4005 3.80968 10.7495 3.46072 10.7495 3.03024C10.7495 2.59976 10.4005 2.2508 9.97004 2.2508C9.53956 2.2508 9.19058 2.59976 9.19058 3.03024C9.19058 3.46072 9.53956 3.80968 9.97004 3.80968Z" fill="#01204E"/>
</g>
</svg>
