<svg width="10" height="13" viewBox="0 0 10 13" fill="none" xmlns="http://www.w3.org/2000/svg">
<path id="Vector" d="M5 0C2.23376 0 0 2.09902 0 4.6984C0 5.60472 0.308104 6.47014 0.736772 7.18132L3.99531 12.4808C4.1996 12.8269 4.61152 13 5 13C5.38851 13 5.78031 12.8269 6.00469 12.4808L9.26323 7.18446C9.69524 6.47322 10 5.62354 10 4.70148C10 2.10216 7.76624 0 5 0ZM5 6.08621C3.99531 6.08621 3.17482 5.3152 3.17482 4.37112C3.17482 3.42703 3.99531 2.65603 5 2.65603C6.00469 2.65603 6.82518 3.42703 6.82518 4.37112C6.82518 5.31835 6.00469 6.08621 5 6.08621Z" fill="#01204E"/>
</svg>
