<svg width="13" height="13" viewBox="0 0 13 13" fill="none" xmlns="http://www.w3.org/2000/svg">
<path id="Vector" d="M12.9743 10.2319C12.8927 9.84459 12.6371 9.49792 12.27 9.28124C11.5903 8.88308 10.8861 8.49848 10.2063 8.12742L9.74135 7.87282C9.14861 7.55051 8.74348 7.61008 8.50692 7.71843C8.28124 7.82136 7.98487 8.06782 7.85707 8.66098C7.85435 8.66912 7.85163 8.67994 7.85163 8.69077C7.81085 8.84516 7.69664 8.90746 7.63139 8.93183C7.48185 8.98329 7.30512 8.94808 7.15828 8.83433C6.02445 7.94593 5.04289 6.97088 4.15648 5.85769C4.04229 5.71685 4.00694 5.5435 4.06131 5.39454C4.08579 5.32682 4.15376 5.20494 4.3441 5.16432C4.35225 5.16161 4.36313 5.16161 4.37128 5.1589C4.97491 5.02618 5.21419 4.71741 5.31207 4.48177C5.41812 4.21635 5.45345 3.76132 5.01569 3.10585C4.6867 2.61561 4.41207 2.07934 4.1456 1.55931C4.02326 1.32367 3.90362 1.08803 3.77854 0.855092C3.52839 0.394644 3.19394 0.107544 2.81329 0.0235811C2.46796 -0.0495371 2.10362 0.0479648 1.7583 0.307986C1.4157 0.567992 1.05407 0.855092 0.711486 1.18554C-0.025376 1.90058 -0.193954 2.80521 0.22477 3.79923C2.0003 8.03261 5.0592 11.058 9.31991 12.7942C9.65162 12.9323 9.97791 13 10.2879 13C10.848 13 11.3619 12.7779 11.8078 12.3391C12.1694 11.9843 12.4876 11.5753 12.7595 11.2151C12.9688 10.9307 13.045 10.5813 12.9743 10.2319Z" fill="#01204E"/>
</svg>
