<svg width="40" height="40" viewBox="0 0 40 40" fill="none" xmlns="http://www.w3.org/2000/svg">
<g id="Vector">
<path d="M15.3408 24C11.6571 24 8.6709 26.9847 8.6709 30.6667C8.6709 34.3486 11.6571 37.3333 15.3408 37.3333C19.0246 37.3333 22.0107 34.3486 22.0107 30.6667C22.0068 26.9863 19.023 24.0039 15.3408 24ZM15.3408 36C12.3937 36 10.0049 33.6123 10.0049 30.6667C10.0049 27.721 12.3937 25.3333 15.3408 25.3333C18.2879 25.3333 20.6768 27.721 20.6768 30.6667C20.6735 33.6107 18.2863 35.9967 15.3408 36Z" fill="white"/>
<path d="M15.3408 28.6667C16.1553 28.6667 16.6748 29.0612 16.6748 29.3333H18.0088C18.0088 28.3861 17.1692 27.6188 16.0078 27.4001V26.6667H14.6738V27.4001C13.5125 27.6172 12.6729 28.3848 12.6729 29.3333C12.6729 30.4554 13.8447 31.3333 15.3408 31.3333C16.1553 31.3333 16.6748 31.7279 16.6748 32C16.6748 32.2721 16.1553 32.6667 15.3408 32.6667C14.5263 32.6667 14.0068 32.2721 14.0068 32H12.6729C12.6729 32.9473 13.5125 33.7145 14.6738 33.9333V34.6667H16.0078V33.9333C17.1692 33.7161 18.0088 32.9486 18.0088 32C18.0088 30.8779 16.837 30 15.3408 30C14.5263 30 14.0068 29.6055 14.0068 29.3333C14.0068 29.0612 14.5263 28.6667 15.3408 28.6667Z" fill="white"/>
<path d="M34.0166 38.6667H6.00293V22.6667H16.6748C17.7798 22.6667 18.6758 21.7712 18.6758 20.6667V4H26.0127V12H34.0166V21.3333H35.3506V11.0573L26.9559 2.66667H18.6758V2C18.6758 0.895508 17.7798 0 16.6748 0H2.00098C0.895945 0 0 0.895508 0 2V20.6667C0 21.7712 0.895945 22.6667 2.00098 22.6667H4.66895V40H35.3506V30.6667H34.0166V38.6667ZM27.3467 4.94271L33.0734 10.6667H27.3467V4.94271ZM1.33398 20.6667V2C1.33398 1.63184 1.63263 1.33333 2.00098 1.33333H16.6748C17.0432 1.33333 17.3418 1.63184 17.3418 2V20.6667C17.3418 21.0348 17.0432 21.3333 16.6748 21.3333H2.00098C1.63263 21.3333 1.33398 21.0348 1.33398 20.6667Z" fill="white"/>
<path d="M21.3438 16.6667H22.6777V18H21.3438V16.6667Z" fill="white"/>
<path d="M24.0117 16.6667H32.0156V18H24.0117V16.6667Z" fill="white"/>
<path d="M21.3438 14H22.6777V15.3333H21.3438V14Z" fill="white"/>
<path d="M24.0117 14H32.0156V15.3333H24.0117V14Z" fill="white"/>
<path d="M21.3438 19.3333H22.6777V20.6667H21.3438V19.3333Z" fill="white"/>
<path d="M24.0117 19.3333H32.0156V20.6667H24.0117V19.3333Z" fill="white"/>
<path d="M21.3438 22H22.6777V23.3333H21.3438V22Z" fill="white"/>
<path d="M24.0117 22H32.0156V23.3333H24.0117V22Z" fill="white"/>
<path d="M16.6748 2H2.00098V6.66667H16.6748V2ZM15.3408 5.33333H3.33496V3.33333H15.3408V5.33333Z" fill="white"/>
<path d="M5.33594 7.33333H4.00195C3.26527 7.33333 2.66797 7.93034 2.66797 8.66667V10C2.66797 10.7363 3.26527 11.3333 4.00195 11.3333H5.33594C6.07263 11.3333 6.66992 10.7363 6.66992 10V8.66667C6.66992 7.93034 6.07263 7.33333 5.33594 7.33333ZM4.00195 10V8.66667H5.33594V10H4.00195Z" fill="white"/>
<path d="M10.0049 7.33333H8.6709C7.93421 7.33333 7.33692 7.93034 7.33692 8.66667V10C7.33692 10.7363 7.93421 11.3333 8.6709 11.3333H10.0049C10.7416 11.3333 11.3389 10.7363 11.3389 10V8.66667C11.3389 7.93034 10.7416 7.33333 10.0049 7.33333ZM8.6709 10V8.66667H10.0049V10H8.6709Z" fill="white"/>
<path d="M14.6738 7.33333H13.3398C12.6032 7.33333 12.0059 7.93034 12.0059 8.66667V10C12.0059 10.7363 12.6032 11.3333 13.3398 11.3333H14.6738C15.4105 11.3333 16.0078 10.7363 16.0078 10V8.66667C16.0078 7.93034 15.4105 7.33333 14.6738 7.33333ZM13.3398 10V8.66667H14.6738V10H13.3398Z" fill="white"/>
<path d="M5.33594 12H4.00195C3.26527 12 2.66797 12.597 2.66797 13.3333V14.6667C2.66797 15.403 3.26527 16 4.00195 16H5.33594C6.07263 16 6.66992 15.403 6.66992 14.6667V13.3333C6.66992 12.597 6.07263 12 5.33594 12ZM4.00195 14.6667V13.3333H5.33594V14.6667H4.00195Z" fill="white"/>
<path d="M10.0049 12H8.6709C7.93421 12 7.33692 12.597 7.33692 13.3333V14.6667C7.33692 15.403 7.93421 16 8.6709 16H10.0049C10.7416 16 11.3389 15.403 11.3389 14.6667V13.3333C11.3389 12.597 10.7416 12 10.0049 12ZM8.6709 14.6667V13.3333H10.0049V14.6667H8.6709Z" fill="white"/>
<path d="M14.6738 12H13.3398C12.6032 12 12.0059 12.597 12.0059 13.3333V14.6667C12.0059 15.403 12.6032 16 13.3398 16H14.6738C15.4105 16 16.0078 15.403 16.0078 14.6667V13.3333C16.0078 12.597 15.4105 12 14.6738 12ZM13.3398 14.6667V13.3333H14.6738V14.6667H13.3398Z" fill="white"/>
<path d="M5.33594 16.6667H4.00195C3.26527 16.6667 2.66797 17.2637 2.66797 18V19.3333C2.66797 20.0697 3.26527 20.6667 4.00195 20.6667H5.33594C6.07263 20.6667 6.66992 20.0697 6.66992 19.3333V18C6.66992 17.2637 6.07263 16.6667 5.33594 16.6667ZM4.00195 19.3333V18H5.33594V19.3333H4.00195Z" fill="white"/>
<path d="M10.0049 16.6667H8.6709C7.93421 16.6667 7.33692 17.2637 7.33692 18V19.3333C7.33692 20.0697 7.93421 20.6667 8.6709 20.6667H10.0049C10.7416 20.6667 11.3389 20.0697 11.3389 19.3333V18C11.3389 17.2637 10.7416 16.6667 10.0049 16.6667ZM8.6709 19.3333V18H10.0049V19.3333H8.6709Z" fill="white"/>
<path d="M14.6738 16.6667H13.3398C12.6032 16.6667 12.0059 17.2637 12.0059 18V19.3333C12.0059 20.0697 12.6032 20.6667 13.3398 20.6667H14.6738C15.4105 20.6667 16.0078 20.0697 16.0078 19.3333V18C16.0078 17.2637 15.4105 16.6667 14.6738 16.6667ZM13.3398 19.3333V18H14.6738V19.3333H13.3398Z" fill="white"/>
<path d="M39.4138 21.2721C38.622 20.5166 37.3763 20.5166 36.5846 21.2721L25.1503 32.7005C25.0949 32.7565 25.0497 32.8216 25.0168 32.8932L23.4066 36.388C23.2903 36.6413 23.3441 36.9404 23.5414 37.1374C23.7385 37.3346 24.0378 37.3883 24.2912 37.2721L27.7877 35.6628C27.8593 35.6299 27.9244 35.585 27.9805 35.5293L39.4138 24.1006C40.1954 23.3197 40.1954 22.0531 39.4138 21.2721ZM27.1207 34.5013L25.3731 35.306L26.1781 33.5592L34.7035 25.0374L35.6466 25.9801L27.1207 34.5013ZM36.5918 25.0345L35.6486 24.0921L36.1156 23.6253L37.0588 24.568L36.5918 25.0345ZM38.4729 23.1546L38.0013 23.626L37.0581 22.6833L37.5304 22.2119C37.7938 21.96 38.2091 21.96 38.4729 22.2119C38.7331 22.4723 38.7331 22.8942 38.4729 23.1546Z" fill="white"/>
</g>
</svg>
