<svg width="40" height="40" viewBox="0 0 40 40" fill="none" xmlns="http://www.w3.org/2000/svg">
<g id="Vector">
<path d="M38.7487 19.7334C37.4113 18.6311 35.2974 18.5366 33.91 20.0256L30.4657 23.7232C30.0204 22.292 28.6837 21.2498 27.1081 21.2498H20.9616C20.4952 21.2498 20.3391 21.0717 19.5289 20.4475C16.44 17.7546 11.8005 17.7632 8.72094 20.4733L6.46172 22.4623C5.44617 21.9248 4.26031 21.9115 3.23922 22.4217L0.647969 23.717C0.0690631 24.0068 -0.165234 24.7107 0.123751 25.2896L7.15461 39.352C7.44445 39.9309 8.14828 40.1652 8.72719 39.8762L11.3184 38.5802C12.5957 37.9419 13.3066 36.6387 13.2605 35.3123H27.108C29.6759 35.3123 32.1296 34.0857 33.6702 32.0311L39.2956 24.5296C40.3869 23.0756 40.2143 20.9436 38.7487 19.7334ZM10.27 36.484L8.72711 37.2559L2.74391 25.2896L4.28758 24.5178C4.86648 24.2287 5.56953 24.4623 5.85937 25.0421L10.7942 34.9122C11.0833 35.4911 10.8489 36.1942 10.27 36.484ZM37.4207 23.1233L31.7953 30.6248C30.6946 32.0927 28.9423 32.9685 27.1081 32.9685H12.4426L8.0514 24.185L10.2692 22.2327C12.4761 20.2913 15.8041 20.2913 18.0109 22.2327C19.3109 23.3772 20.1194 23.5936 20.9616 23.5936H27.108C27.7541 23.5936 28.2798 24.1194 28.2798 24.7655C28.2798 25.4115 27.7541 25.9373 27.108 25.9373H21.1233C20.4764 25.9373 19.9515 26.4624 19.9515 27.1092C19.9515 27.756 20.4765 28.281 21.1233 28.281H27.8932C28.8658 28.281 29.8033 27.8732 30.4657 27.1615L35.6248 21.6233C36.0966 21.117 36.82 21.1592 37.2637 21.5475C37.7277 21.9537 37.7778 22.6483 37.4207 23.1233Z" fill="white"/>
<path d="M24.6395 7.99681C25.4417 7.15544 25.9362 6.01796 25.9362 4.76555C25.9362 2.18589 23.852 0 21.2491 0C18.6656 0 16.4837 2.18199 16.4837 4.76555C16.4837 5.9796 16.9595 7.12567 17.8235 8.00619C15.6807 9.20773 14.1402 11.5139 14.1402 14.2186V15.3905C14.1402 16.0373 14.6652 16.5623 15.3119 16.5623H27.1081C27.7549 16.5623 28.2799 16.0373 28.2799 15.3905V14.2186C28.2798 11.5671 26.8215 9.22492 24.6395 7.99681ZM21.2491 2.34379C22.5193 2.34379 23.5927 3.45314 23.5927 4.76563C23.5927 6.05781 22.5412 7.10935 21.2491 7.10935C19.9366 7.10935 18.8273 6.03593 18.8273 4.76563C18.8273 3.4758 19.9593 2.34379 21.2491 2.34379ZM16.4837 14.2186C16.4837 11.635 18.6656 9.45306 21.2491 9.45306C23.8333 9.45306 25.9362 11.5905 25.9362 14.2186H16.4837Z" fill="white"/>
</g>
</svg>
