<svg width="40" height="27" viewBox="0 0 40 27" fill="none" xmlns="http://www.w3.org/2000/svg">
<g id="Vector">
<path d="M39.3333 21.6H38.6667V0.675C38.6667 0.302231 38.3682 0 38 0H2C1.63183 0 1.33333 0.302231 1.33333 0.675V21.6H0.666667C0.2985 21.6 0 21.9022 0 22.275V23.625C0.00216667 25.488 1.49333 26.9978 3.33333 27H36.6667C38.5067 26.9978 39.9978 25.488 40 23.625V22.275C40 21.9022 39.7015 21.6 39.3333 21.6ZM2.66667 1.35H37.3333V21.6H25.3333C25.1564 21.6009 24.9869 21.6722 24.8613 21.7985L23.724 22.95H16.276L15.1387 21.7985C15.0131 21.6722 14.8436 21.6009 14.6667 21.6H2.66667V1.35ZM38.6667 23.625C38.6667 24.7434 37.7713 25.65 36.6667 25.65H3.33333C2.22875 25.65 1.33333 24.7434 1.33333 23.625V22.95H14.3907L15.5287 24.1022C15.6537 24.2288 15.8232 24.3 16 24.3H24C24.1768 24.3 24.3463 24.2288 24.4713 24.1022L25.6093 22.95H38.6667V23.625Z" fill="white"/>
<path d="M14.7187 15.7174L22.7553 8.25795L30.7553 12.9755L36.6667 6.98895V2.025H3.33333V17.5804L10.0167 12.3154L14.7187 15.7174ZM4.66667 14.8196V3.375H35.3333V6.43005L30.5393 11.2853L22.578 6.59205L14.6147 13.9826L9.98333 10.6333L4.66667 14.8196Z" fill="white"/>
<path d="M36.6667 9.45H35.3333V19.575H34V12.15H32.6667V19.575H31.3333V14.175H30V19.575H28.6667V12.825H27.3333V19.575H26V11.475H24.6667V19.575H23.3333V10.125H22V19.575H20.6667V12.825H19.3333V19.575H18V15.525H16.6667V19.575H15.3333V16.875H14V19.575H12.6667V15.525H11.3333V19.575H10V14.85H8.66667V19.575H7.33333V16.875H6V19.575H4.66667V18.9H3.33333V20.925H36.6667V9.45Z" fill="white"/>
</g>
</svg>
